<?xml version="1.0" encoding="UTF-8" standalone="no"?>
<svg enable-background="new 0 0 500 540" height="305.78406" viewBox="0 0 320 305.78406" width="320" xmlns="http://www.w3.org/2000/svg" xmlns:xlink="http://www.w3.org/1999/xlink">
   <defs>
      <clipPath id="a">
         <use height="100%" overflow="visible" width="100%" xlink:href="#b"/>
      </clipPath>
      <rect id="b" height="473.40701" width="495.354" x="2.6029999" y="33.188999"/>
   </defs>
   <g transform="matrix(.64600265 0 0 .64600265 -1.6815448 -21.447934)">
      <path clip-path="url(#a)" d="m228.872 501.668c-64.716-30.32-130.794-87.977-175.043-187.23-31.577-70.84-52.636-162.868-51.321-281.237h495.449c1.848 117.896-19.732 210.208-52.375 281.758-43.35 94.989-106.976 153.356-168.398 186.378-7.628 2.747-17.506 5.212-23.499 5.212-5.946 0-16.76-2.085-24.813-4.881" fill="#ab0634"/>
      <path clip-path="url(#a)" d="m229.629 491.388c-137.675-70.117-217.243-230.734-217.243-448.712h474.343c8.102 175.955-69.809 378.596-215.041 450.37-5.91 1.989-12.246 3.458-18.168 3.506-7.617-.048-16.133-2.464-23.891-5.164" fill="#fff"/>
      <path clip-path="url(#a)" d="m59.797 277.946c-28.722-78.266-38.197-159.397-37.913-226.15h392.216z" fill="#ab0634"/>
      <path clip-path="url(#a)" d="m132.532 405.447c-29.752-34.016-53.097-75.707-70.294-120.158l362.522-233.493h52.493c0 50.077-2.961 92.763-13.313 145.824z" fill="#ab0634"/>
      <path clip-path="url(#a)" d="m134.036 399.241c-28.284-32.311-49.603-69.975-65.924-112.175l357.596-230.77 47.423-.426c0 52.185-4.596 88.546-14.426 138.978z" fill="#fff"/>
      <path clip-path="url(#a)" d="m461.121 210.838c-36.029 145.102-138.03 266.053-207.957 277.328-33.863-2.652-81.061-40.175-113.857-75.754z" fill="#ab0634"/>
      <path clip-path="url(#a)" d="m395.292 103.673l.925 10.186c4.287 8.338 9.641 15.753 13.715 24.28 2.227 4.43 5.377 7.983 7.604 12.413.924 0 .734 1.303 1.113 1.848 4.998 9.097 10.564 17.813 15.753 26.697 2.037 1.848 5.946-.924 6.846 2.227 1.303 3.885-3.127 4.098-5.164 5.732-6.515 3.364-11.868 8.149-18.192 12.058-1.658.734-3.127-.355-3.506-1.682-1.469-3.695 2.795-5.188 1.113-8.504-10.375-18.927-22.243-36.527-32.809-55.241-3.126-4.264-4.809-10.02-9.428-13.336-1.895-1.872-5.59-1.469-6.324-4.453 5.756-3.316 13.715-3.316 17.979-8.717 2.227-2.582 4.643-4.619 6.87-7.225 3.151-.926 2.937 2.035 3.505 3.717" fill="#ab0634"/>
      <path clip-path="url(#a)" d="m353.98 140.366c-1.682 8.504-6.111 15.374-5.566 24.825 0 2.605 1.113 5.211.354 7.604-2.795 1.682-3.34-1.848-5.188-2.605-2.037-1.279-3.529-2.961-6.111-3.316-5.757 0-14.095-.758-17.411 3.885-2.227 4.643-3.506 10.02-4.832 15.208-.924 6.68-2.748 12.792-2.605 20.182.213 6.135 5.4 9.262 10.398 10.944 2.227.355 3.719 2.227 5.945 1.872.711.924 2.938-.213 3.316.924 2.417.9 6.87 1.468 9.618 1.279l.947.379 8.907-.19c2.227-.758 4.809-.924 6.111-3.15.734-3.34 3.885-5.922 2.416-10.02-2.416-5.354-5.945-9.831-8.717-14.995-2.227-.545-3.506 1.658-5.946.545-1.278-2.227-3.86-4.453-2.961-7.225 3.175-2.038 6.491-3.885 9.642-5.733 2.393-3.15 7.035-3.719 9.83-6.301.758-.758 1.658-1.493 3.127-1.113 2.037 2.582 4.287 5.188 5.566 8.338.402.355 6.68 10.944 9.83 16.487.189.734 1.469.568 2.037.355 2.038-1.824 2.228-6.111 5.946-5.354 1.113 1.09.545 2.606.355 4.24-.924 4.074-2.393 8.907-2.961 13.55-1.469 1.303-.189 4.264-1.113 5.543-3.151 4.264-9.808.924-13.692 3.364-2.227 2.393-2.605 5.732-4.643 8.148-4.098 5.377-8.527 12.057-17.055 12.223l-7.226-.568c-2.037-.734-4.619-.924-6.869-1.469-6.657-3.34-13.905-5.922-19.282-11.11-4.619-3.529-7.225-8.907-10.541-13.549l-2.227-7.77v-20.016l1.279-17.245c.758-6.846 1.658-13.526 5.922-17.411 3.363-1.493 6.869-2.606 10.588-3.34 3.529-.544 6.846-1.492 10.541-1.871 3.72 1.492 7.249-1.279 10.589-2.393.734-1.682 7.746-2.795 9.831-3.506z" fill="#ab0634"/>
      <path clip-path="url(#a)" d="m258.707 188.002c-.557 4.074 1.113 6.656 2.037 9.049 1.48 1.682 2.404 4.122 3.518 6.159 2.795 5.709 6.1 10.896 9.084 16.297l2.984 4.43 12.578 22.243 4.479 7.415c2.368.568 6.301.379 8.883-.189 1.658-.355 3.885-1.113 5.377-.166l.189 14.829c-.568.544-.402 1.848-1.137 2.392-1.303 1.682-4.975 1.114-7.012 1.303-3.933.924-8.552.734-12.082 2.037-1.658.568-2.368 2.227-3.126 3.695-3.175 6.49-8.339 11.488-13.55 16.131-3.873 1.872-7.781 4.087-12.223 5.177-3.518 1.516-8.339 2.227-12.614 1.137-6.668-.758-11.856-3.921-15.184-8.919-7.036-10.73-13.893-21.485-20.573-32.429-1.67-3.695-3.896-6.656-6.111-9.807l.177-.568-.734-.166c-3.151-6.301-7.225-12.413-13.171-16.487-.367-.948-.166-2.44.924-2.795 3.15-1.682 7.059-2.416 11.323-2.795 3.885-2.393 6.289-7.036 10.363-9.618.557-.213 1.67-.924 2.227 0 1.315 3.506 1.315 7.77 1.872 11.844 10.186 18.334 21.663 35.958 32.796 53.559 1.481 1.113 2.595.189 4.265.758 2.215 0 4.631.166 6.668-.379 5.199-2.227 10.186-5.732 12.791-10.754 1.848-1.469 2.748-3.885 2.037-6.68-.758-2.938-2.961-4.785-4.643-7.225-2.037-5.188-4.986-9.617-7.781-14.26l-15.208-25.56c-3.316-5.021-5.354-11.868-12.034-13.549-.912 0-1.303-.734-1.67-1.469 2.037-6.301 11.868-3.553 14.651-9.262 2.038-2.605 3.886-5.188 6.669-6.869 1.291-.001 2.594.354 2.961 1.491" fill="#ab0634"/>
      <path clip-path="url(#a)" d="m134.901 267.121c.758 4.454-.924 10.565 2.238 13.36 7.225 12.603 15.184 24.293 22.243 36.895 3.684 6.822 7.758 13.123 11.667 19.803 1.113.758 1.48 2.796 3.316 1.658 9.274-7.391 16.89-16.297 23.925-25.393 2.783-3.316 4.441-7.771 7.225-10.944 1.113-2.559 2.961-4.217 4.264-6.645h1.291c-.723 7.402-2.76 14.272-2.594 22.421l.746 14.26-1.113 2.227c-14.45 8.718-28.722 18.004-43.373 26.342h-2.037c-15.006-23.547-29.278-47.85-44.486-71.361-3.316-2.227-7.225-3.34-10.743-4.998-.722-.758-1.113-2.227-.367-2.795 2.037-2.037 4.999-2.203 7.592-2.961 1.871 0 3.719-.924 5.199 0l2.784-1.303 4.252-7.225c2.416-1.492 3.896-5.377 7.415-4.619z" fill="#ab0634"/>
      <line clip-path="url(#a)" fill="none" stroke="#231f20" stroke-miterlimit="10" stroke-width=".36379999" x1="400.504" x2="400.504" y1="358.30899" y2="357.73999"/>
   </g>
</svg>
